:SAMPLES-PER-SECOND 30
:FULLY-SPECIFIED
:DEGREES
125
root  -32.9256 40.7045 7.2652 -72.7621 -82.9376 82.2372
RightUpLeg  -1.62617 -15.7518 -21.8476
RightLeg  0.89403 -9.57094 2.0287
RightFoot  -0.947698 -1.14464 12.4682
RightToes  0.000482159 0.542163 -0.142577
Spine  20.7996 6.23109 20.021
Spine1  0.478141 14.6712 -24.4907
HEad  -30.8597 -25.5096 -0.338776
LeftShoulder1  7.38119 -11.6127 -42.4143
LeftArm  -16.5281 15.9132 -25.1026
LeftForeArm  45.5554 -43.4631 -7.57409
LeftHand  -0.25398 0.0180481 5.50724
RightShoulder  3.52623 8.12578 24.1535
RightArm  -56.3018 35.6923 0.969916
RightForeArm  69.845 79.3157 80.4035
RightHand  -1.86339 2.81455 -26.419
LeftUpLeg  -14.4443 -1.9392 -7.88551
LeftLeg  1.2674 8.9808 -6.07826
LeftFoot  4.66822 -1.25139 8.67842
LeftToes  1.06244e-005 4.65856e-005 -8.18505e-006
126
root  -33.0304 40.6926 7.20966 -53.9442 -82.1949 63.9628
RightUpLeg  -1.02433 -15.8716 -21.8277
RightLeg  0.945684 -11.8038 2.36237
RightFoot  -1.31867 -1.11187 12.5293
RightToes  0.000482159 0.542163 -0.142577
Spine  19.4564 5.9055 19.2991
Spine1  0.475731 13.6885 -23.1417
HEad  -29.2323 -23.289 -5.09342
LeftShoulder1  7.3369 -11.3649 -42.8902
LeftArm  -17.6707 17.6569 -24.5369
LeftForeArm  46.0855 -44.0872 -7.74162
LeftHand  -0.25398 0.0180481 5.50724
RightShoulder  3.19539 6.70191 25.1952
RightArm  -70.1045 32.8423 5.19549
RightForeArm  135.768 70.2715 149.11
RightHand  -2.15631 2.86828 -28.7863
LeftUpLeg  -14.9137 -2.48536 -8.11098
LeftLeg  1.4603 7.03925 -5.78691
LeftFoot  4.7918 -1.27009 8.73735
LeftToes  1.06244e-005 4.65856e-005 -8.18505e-006
127
root  -33.0767 40.6987 7.14134 -52.7377 -82.1551 62.9308
RightUpLeg  -1.41367 -15.6383 -21.4582
RightLeg  1.50623 -12.2299 2.09094
RightFoot  -1.58913 -1.06154 12.2717
RightToes  0.000482159 0.542163 -0.142577
Spine  18.9626 6.02666 19.6482
Spine1  0.692423 14.0269 -24.1202
HEad  -27.9527 -21.3281 -9.34274
LeftShoulder1  7.24398 -11.1973 -42.8253
LeftArm  -18.416 17.6427 -23.9324
LeftForeArm  46.7228 -43.2287 -7.43439
LeftHand  -0.25398 0.0180481 5.50724
RightShoulder  3.23039 6.43901 26.4073
RightArm  -83.3265 31.7283 8.1557
RightForeArm  144.954 59.2225 161.47
RightHand  -5.24837 11.1446 -36.336
LeftUpLeg  -14.9254 -2.44324 -7.97998
LeftLeg  1.25176 6.87922 -5.74566
LeftFoot  4.83328 -1.26 8.64224
LeftToes  1.06244e-005 4.65856e-005 -8.18505e-006
128
root  -33.0686 40.7144 7.08313 -66.5616 -82.9274 76.3585
RightUpLeg  -2.16565 -15.351 -21.1515
RightLeg  2.16621 -10.6228 1.61637
RightFoot  -1.7072 -1.01991 11.9238
RightToes  0.000482159 0.542163 -0.142577
Spine  19.0978 6.41702 20.2415
Spine1  1.0091 15.0447 -26.2017
HEad  -26.4133 -19.0586 -12.588
LeftShoulder1  7.04804 -10.8574 -42.6406
LeftArm  -19.2711 16.7113 -23.2727
LeftForeArm  46.1149 -42.0455 -7.10663
LeftHand  -0.25398 0.0180481 5.50724
RightShoulder  3.65638 7.29484 27.8482
RightArm  -84.7188 31.0913 9.98713
RightForeArm  142.445 56.1818 163.483
RightHand  -6.5864 14.5587 -37.5255
LeftUpLeg  -14.4665 -1.92398 -7.63355
LeftLeg  1.09605 8.35456 -5.88807
LeftFoot  4.60902 -1.2354 8.60054
LeftToes  1.06244e-005 4.65856e-005 -8.18505e-006
129
root  -33.0067 40.727 7.05826 -93.254 -83.1316 102.031
RightUpLeg  -2.74794 -15.2223 -21.1078
RightLeg  2.71503 -7.43588 1.32343
RightFoot  -1.67291 -1.00386 11.7005
RightToes  0.000482159 0.542163 -0.142577
Spine  19.357 6.61027 20.4648
Spine1  1.4052 15.8748 -28.3385
HEad  -24.0129 -16.677 -14.3344
LeftShoulder1  6.7934 -10.3565 -42.5772
LeftArm  -20.7706 15.9429 -22.49
LeftForeArm  44.5901 -41.5917 -7.06036
LeftHand  -0.25398 0.0180481 5.50724
RightShoulder  3.90466 8.19094 27.3669
RightArm  -69.8998 32.5734 9.56017
RightForeArm  130.115 68.0328 147.716
RightHand  -4.82514 10.5932 -34.0666
LeftUpLeg  -13.6142 -1.14421 -7.20544
LeftLeg  1.37154 10.8598 -6.02244
LeftFoot  4.03275 -1.17573 8.51131
LeftToes  1.06244e-005 4.65856e-005 -8.18505e-006
130
root  -32.9067 40.732 7.04407 -123.2 -81.4193 130.68
RightUpLeg  -3.5189 -15.0059 -20.9811
RightLeg  3.26203 -3.30722 1.03625
RightFoot  -1.56905 -1.00139 11.5631
RightToes  0.000482159 0.542163 -0.142577
Spine  19.5282 6.55725 20.8055
Spine1  1.74603 16.6374 -31.317
HEad  -21.3148 -15.6114 -14.1616
LeftShoulder1  6.59635 -10.059 -42.224
LeftArm  -22.5968 15.4087 -21.594
LeftForeArm  43.6802 -41.5711 -7.1069
LeftHand  -0.25398 0.0180481 5.50724
RightShoulder  3.70243 8.7522 24.0401
RightArm  -48.7946 38.9338 7.821
RightForeArm  42.0468 74.1173 51.5936
RightHand  -1.81335 2.652 -26.2626
LeftUpLeg  -12.6258 -0.215646 -6.66578
LeftLeg  1.96312 14.2032 -6.00545
LeftFoot  3.20528 -1.05759 8.11658
LeftToes  1.06244e-005 4.65856e-005 -8.18505e-006
131
root  -32.7943 40.7368 6.98673 -142.781 -77.8841 149.046
RightUpLeg  -4.64275 -14.4271 -20.4576
RightLeg  3.78443 0.947649 0.571267
RightFoot  -1.48638 -0.99611 11.3971
RightToes  0.000482159 0.542163 -0.142577
Spine  20.0541 6.57038 21.7257
Spine1  1.51992 17.7974 -35.8696
HEad  -19.8555 -16.7395 -11.8361
LeftShoulder1  6.48975 -10.1868 -41.0788
LeftArm  -23.7166 14.149 -20.8929
LeftForeArm  43.6694 -40.6414 -6.83783
LeftHand  -0.25398 0.0180481 5.50724
RightShoulder  3.28087 9.59834 18.5732
RightArm  -15.1416 49.7821 8.18102
RightForeArm  1.17499 41.0756 7.34342
RightHand  -1.04023 1.72692 -17.458
LeftUpLeg  -11.6385 0.771077 -5.99045
LeftLeg  2.50346 18.0015 -5.86708
LeftFoot  2.39837 -0.908392 7.40734
LeftToes  1.06244e-005 4.65856e-005 -8.18505e-006
